<svg xmlns="http://www.w3.org/2000/svg" viewBox="0 0 1280 720" width="1280" height="720" role="img" aria-label="Platzhalterbild 4">
  <defs>
    <linearGradient id="g4" x1="0" y1="0" x2="1" y2="1">
      <stop offset="0" stop-color="#0f3d2e"/><stop offset="1" stop-color="#1f7a55"/>
    </linearGradient>
    <pattern id="d4" width="48" height="48" patternUnits="userSpaceOnUse">
      <path d="M48 0H0V48" fill="none" stroke="#ffffff" stroke-opacity="0.05" stroke-width="1"/>
    </pattern>
  </defs>
  <rect width="1280" height="720" fill="url(#g4)"/>
  <rect width="1280" height="720" fill="url(#d4)"/>
  <g transform="translate(770 150) scale(1.9)" fill="none" stroke="#ffffff" stroke-opacity="0.55" stroke-width="4" stroke-linecap="round" stroke-linejoin="round">
    <path d="M40 20 a90 90 0 0 0 80 80 l14 -22 a10 10 0 0 0 -6 -14 l-20 -6 a10 10 0 0 0 -11 4 l-6 8 a70 70 0 0 1 -24 -24 l8 -6 a10 10 0 0 0 4 -11 l-6 -20 a10 10 0 0 0 -14 -6 z"/>
  </g>
  <g font-family="'Segoe UI',Roboto,Arial,sans-serif">
    <text x="80" y="600" font-size="60" font-weight="700" fill="#ffffff" fill-opacity="0.92">Telefonanlagen</text>
    <text x="82" y="646" font-size="24" fill="#ffffff" fill-opacity="0.55" letter-spacing="3">04 / 04 &#183; PLATZHALTER &#183; BILD FOLGT</text>
  </g>
</svg>
